<?xml version="1.0" encoding="utf-8"?>
<!-- Generator: Adobe Illustrator 24.3.0, SVG Export Plug-In . SVG Version: 6.00 Build 0)  -->
<svg version="1.1" id="Layer_1" xmlns="http://www.w3.org/2000/svg" xmlns:xlink="http://www.w3.org/1999/xlink" x="0px" y="0px"
	 viewBox="0 0 1920 1080" style="enable-background:new 0 0 1920 1080;" xml:space="preserve">
<style type="text/css">
	.st0{fill:#FFFFFF;stroke:#2B00FF;stroke-width:10;stroke-miterlimit:10;}
	.st1{fill:#00FFFF;stroke:#840081;stroke-miterlimit:10;}
</style>
<g>
	<path class="st0" d="M768.89,901.52h297.23c117.09,0,212.01-94.92,212.01-212.01V437.97c0-117.09-94.92-212.01-212.01-212.01
		H768.89c-117.09,0-212.01,94.92-212.01,212.01V689.5C556.87,806.59,651.79,901.52,768.89,901.52z"/>
	<path class="st0" d="M900.64,901.47h33.71c186.51,0,337.71-151.2,337.71-337.71v0c0-186.51-151.2-337.71-337.71-337.71h-33.71
		c-186.51,0-337.71,151.2-337.71,337.71v0C562.93,750.27,714.13,901.47,900.64,901.47z"/>
</g>
<g>
	<path class="st1" d="M735.96,781.56l28.65-43.42l3.94,0.17c2.06-0.1,6.9-0.97,14.51-2.59c18.38-3.92,30.55-13.16,36.52-27.71
		c5.97-14.55,8.57-41.07,7.79-79.56l-4.43-201.23l-62.82,13.41c-63.73,13.6-90.05,44.77-78.96,93.49
		c1.31,5.77,3.68,12.74,7.11,20.92l-46.34,34.34c-3.78-48.6,8.82-90.45,37.81-125.54c28.98-35.09,70.21-58.34,123.68-69.76
		l105.28-22.47c47.51-10.14,78.27-19.9,92.28-29.28c14.01-9.38,21.35-25.14,22.03-47.31l33.91-22.61
		c-4.8,32.28-21.66,61.18-50.56,86.67c-28.91,25.5-64.39,42.73-106.44,51.71l-24.83,5.3L878.74,591
		c0.74,31.44-2.92,57.13-10.96,77.08c-8.04,19.95-23.09,40.6-45.13,61.94l96.29-18.54l-26.41,42.95L735.96,781.56z"/>
</g>
<g>
	<path class="st1" d="M869.97,845.1l39.01-48.51c31.3,17.33,61.95,24.34,91.96,21.05c18.46-2.02,33.47-8.42,45.04-19.19
		c11.57-10.77,16.55-23.06,14.94-36.86c-1.79-15.31-16.83-34.86-45.1-58.63l-34.19-29.02c-33.31-28.24-51.21-52.93-53.68-74.07
		c-3.43-29.33,7.9-56.95,33.97-82.86c26.08-25.9,57.61-40.88,94.6-44.94c20.27-2.22,43.47-0.61,69.61,4.82l-6.34,73.12l-21.39,2.34
		l0.36-5.61c0.22-1.99,0.18-4.28-0.13-6.87c-3.4-29.12-24.44-41.56-63.1-37.32c-43.33,4.75-63.02,23.95-59.09,57.6
		c1.99,17.04,17.56,38.27,46.71,63.7l30.85,26.44c33.66,29.3,51.72,54.41,54.16,75.33c3.38,28.91-9.43,56.41-38.41,82.53
		c-28.99,26.12-63.65,41.38-103.97,45.8C937.47,857.03,905.54,854.09,869.97,845.1z"/>
</g>
</svg>
